<mxfile host="app.diagrams.net" modified="2024-04-25T23:13:47.841Z" agent="Mozilla/5.0 (Windows NT 10.0; Win64; x64) AppleWebKit/537.36 (KHTML, like Gecko) Chrome/124.0.0.0 Safari/537.36" etag="3mXXHrHAJGCvVRAShZYt" version="24.2.5" type="github">
  <diagram name="Page-1" id="13e1069c-82ec-6db2-03f1-153e76fe0fe0">
    <mxGraphModel dx="493" dy="468" grid="1" gridSize="10" guides="1" tooltips="1" connect="1" arrows="1" fold="1" page="1" pageScale="1" pageWidth="1100" pageHeight="850" background="none" math="0" shadow="0">
      <root>
        <mxCell id="0" />
        <mxCell id="1" parent="0" />
        <mxCell id="7baba1c4bc27f4b0-2" value="REST API" style="shape=umlLifeline;perimeter=lifelinePerimeter;whiteSpace=wrap;html=1;container=1;collapsible=0;recursiveResize=0;outlineConnect=0;rounded=1;shadow=0;comic=0;labelBackgroundColor=none;strokeWidth=1;fontFamily=Verdana;fontSize=12;align=center;" parent="1" vertex="1">
          <mxGeometry x="40" y="40" width="100" height="770" as="geometry" />
        </mxCell>
        <mxCell id="7baba1c4bc27f4b0-10" value="" style="html=1;points=[];perimeter=orthogonalPerimeter;rounded=0;shadow=0;comic=0;labelBackgroundColor=none;strokeWidth=1;fontFamily=Verdana;fontSize=12;align=center;" parent="7baba1c4bc27f4b0-2" vertex="1">
          <mxGeometry x="45" y="400" width="10" height="120" as="geometry" />
        </mxCell>
        <mxCell id="7baba1c4bc27f4b0-3" value="Web Scraping" style="shape=umlLifeline;perimeter=lifelinePerimeter;whiteSpace=wrap;html=1;container=1;collapsible=0;recursiveResize=0;outlineConnect=0;rounded=1;shadow=0;comic=0;labelBackgroundColor=none;strokeWidth=1;fontFamily=Verdana;fontSize=12;align=center;" parent="1" vertex="1">
          <mxGeometry x="193" y="39" width="100" height="771" as="geometry" />
        </mxCell>
        <mxCell id="7baba1c4bc27f4b0-13" value="" style="html=1;points=[];perimeter=orthogonalPerimeter;rounded=0;shadow=0;comic=0;labelBackgroundColor=none;strokeWidth=1;fontFamily=Verdana;fontSize=12;align=center;" parent="7baba1c4bc27f4b0-3" vertex="1">
          <mxGeometry x="45" y="81" width="10" height="150" as="geometry" />
        </mxCell>
        <mxCell id="7baba1c4bc27f4b0-4" value="Embrapa Website" style="shape=umlLifeline;perimeter=lifelinePerimeter;whiteSpace=wrap;html=1;container=1;collapsible=0;recursiveResize=0;outlineConnect=0;rounded=1;shadow=0;comic=0;labelBackgroundColor=none;strokeWidth=1;fontFamily=Verdana;fontSize=12;align=center;" parent="1" vertex="1">
          <mxGeometry x="340" y="40" width="100" height="770" as="geometry" />
        </mxCell>
        <mxCell id="3TS8Lj0KL39nGimkemYy-3" value="Return data" style="html=1;verticalAlign=bottom;endArrow=block;labelBackgroundColor=none;fontFamily=Verdana;fontSize=12;edgeStyle=elbowEdgeStyle;elbow=vertical;entryX=0.97;entryY=0.536;entryDx=0;entryDy=0;entryPerimeter=0;dashed=1;dashPattern=1 1;" parent="7baba1c4bc27f4b0-4" target="7baba1c4bc27f4b0-13" edge="1">
          <mxGeometry relative="1" as="geometry">
            <mxPoint x="50" y="160" as="sourcePoint" />
            <Array as="points">
              <mxPoint x="-30" y="160" />
            </Array>
            <mxPoint x="-85" y="160" as="targetPoint" />
          </mxGeometry>
        </mxCell>
        <mxCell id="3TS8Lj0KL39nGimkemYy-1" value="Return JWT Token" style="html=1;verticalAlign=bottom;endArrow=block;labelBackgroundColor=none;fontFamily=Verdana;fontSize=12;edgeStyle=elbowEdgeStyle;elbow=vertical;dashed=1;dashPattern=1 1;" parent="7baba1c4bc27f4b0-4" target="3TS8Lj0KL39nGimkemYy-11" edge="1">
          <mxGeometry x="0.0015" relative="1" as="geometry">
            <mxPoint x="189.83000000000027" y="360" as="sourcePoint" />
            <mxPoint x="-390.00333333333344" y="360" as="targetPoint" />
            <Array as="points">
              <mxPoint x="420" y="360" />
            </Array>
            <mxPoint as="offset" />
          </mxGeometry>
        </mxCell>
        <mxCell id="7baba1c4bc27f4b0-5" value="Authentication Service" style="shape=umlLifeline;perimeter=lifelinePerimeter;whiteSpace=wrap;html=1;container=1;collapsible=0;recursiveResize=0;outlineConnect=0;rounded=1;shadow=0;comic=0;labelBackgroundColor=none;strokeWidth=1;fontFamily=Verdana;fontSize=12;align=center;" parent="1" vertex="1">
          <mxGeometry x="480" y="40" width="100" height="770" as="geometry" />
        </mxCell>
        <mxCell id="7baba1c4bc27f4b0-6" value="Database" style="shape=umlLifeline;perimeter=lifelinePerimeter;whiteSpace=wrap;html=1;container=1;collapsible=0;recursiveResize=0;outlineConnect=0;rounded=1;shadow=0;comic=0;labelBackgroundColor=none;strokeWidth=1;fontFamily=Verdana;fontSize=12;align=center;" parent="1" vertex="1">
          <mxGeometry x="627" y="40" width="100" height="770" as="geometry" />
        </mxCell>
        <mxCell id="7baba1c4bc27f4b0-7" value="ML Model" style="shape=umlLifeline;perimeter=lifelinePerimeter;whiteSpace=wrap;html=1;container=1;collapsible=0;recursiveResize=0;outlineConnect=0;rounded=1;shadow=0;comic=0;labelBackgroundColor=none;strokeWidth=1;fontFamily=Verdana;fontSize=12;align=center;gradientColor=none;" parent="1" vertex="1">
          <mxGeometry x="785" y="40" width="100" height="770" as="geometry" />
        </mxCell>
        <mxCell id="3TS8Lj0KL39nGimkemYy-8" value="Send Data for Analysis" style="html=1;verticalAlign=bottom;endArrow=block;labelBackgroundColor=none;fontFamily=Verdana;fontSize=12;edgeStyle=elbowEdgeStyle;elbow=vertical;" parent="7baba1c4bc27f4b0-7" source="3TS8Lj0KL39nGimkemYy-11" edge="1">
          <mxGeometry x="0.0242" relative="1" as="geometry">
            <mxPoint x="189.49999999999955" y="640" as="sourcePoint" />
            <Array as="points">
              <mxPoint x="120" y="640" />
            </Array>
            <mxPoint x="49.25" y="640" as="targetPoint" />
            <mxPoint as="offset" />
          </mxGeometry>
        </mxCell>
        <mxCell id="3TS8Lj0KL39nGimkemYy-9" value="Return Analysis Result" style="html=1;verticalAlign=bottom;endArrow=block;labelBackgroundColor=none;fontFamily=Verdana;fontSize=12;edgeStyle=elbowEdgeStyle;elbow=vertical;dashed=1;dashPattern=1 1;" parent="7baba1c4bc27f4b0-7" target="3TS8Lj0KL39nGimkemYy-11" edge="1">
          <mxGeometry x="-0.0242" relative="1" as="geometry">
            <mxPoint x="49.25" y="680" as="sourcePoint" />
            <Array as="points">
              <mxPoint x="120" y="680" />
            </Array>
            <mxPoint x="189.49999999999955" y="680" as="targetPoint" />
            <mxPoint as="offset" />
          </mxGeometry>
        </mxCell>
        <mxCell id="7baba1c4bc27f4b0-17" value="Scrape Data" style="html=1;verticalAlign=bottom;endArrow=block;labelBackgroundColor=none;fontFamily=Verdana;fontSize=12;edgeStyle=elbowEdgeStyle;elbow=vertical;exitX=1.016;exitY=0.261;exitDx=0;exitDy=0;exitPerimeter=0;" parent="1" source="7baba1c4bc27f4b0-13" target="7baba1c4bc27f4b0-4" edge="1">
          <mxGeometry relative="1" as="geometry">
            <mxPoint x="255" y="159.99999999999997" as="sourcePoint" />
            <Array as="points">
              <mxPoint x="290" y="160" />
            </Array>
            <mxPoint x="385" y="159.99999999999997" as="targetPoint" />
          </mxGeometry>
        </mxCell>
        <mxCell id="3TS8Lj0KL39nGimkemYy-5" value="Retrieve Stored Data" style="html=1;verticalAlign=bottom;endArrow=block;labelBackgroundColor=none;fontFamily=Verdana;fontSize=12;edgeStyle=elbowEdgeStyle;elbow=vertical;" parent="1" source="7baba1c4bc27f4b0-10" target="7baba1c4bc27f4b0-6" edge="1">
          <mxGeometry x="0.2554" relative="1" as="geometry">
            <mxPoint x="250" y="490" as="sourcePoint" />
            <Array as="points">
              <mxPoint x="260" y="490" />
            </Array>
            <mxPoint x="670" y="490" as="targetPoint" />
            <mxPoint x="-1" as="offset" />
          </mxGeometry>
        </mxCell>
        <mxCell id="3TS8Lj0KL39nGimkemYy-6" value="Return Data" style="html=1;verticalAlign=bottom;endArrow=block;labelBackgroundColor=none;fontFamily=Verdana;fontSize=12;edgeStyle=elbowEdgeStyle;elbow=vertical;dashed=1;dashPattern=1 1;" parent="1" source="7baba1c4bc27f4b0-6" target="7baba1c4bc27f4b0-2" edge="1">
          <mxGeometry x="-0.2629" relative="1" as="geometry">
            <mxPoint x="375" y="560" as="sourcePoint" />
            <Array as="points">
              <mxPoint x="375" y="560" />
            </Array>
            <mxPoint x="240" y="560" as="targetPoint" />
            <mxPoint x="1" as="offset" />
          </mxGeometry>
        </mxCell>
        <mxCell id="3TS8Lj0KL39nGimkemYy-7" value="Request Data with JWT" style="html=1;verticalAlign=bottom;endArrow=block;labelBackgroundColor=none;fontFamily=Verdana;fontSize=12;edgeStyle=elbowEdgeStyle;elbow=vertical;" parent="1" source="3TS8Lj0KL39nGimkemYy-11" target="7baba1c4bc27f4b0-2" edge="1">
          <mxGeometry x="-0.8234" relative="1" as="geometry">
            <mxPoint x="949.28" y="441" as="sourcePoint" />
            <Array as="points">
              <mxPoint x="740" y="441" />
            </Array>
            <mxPoint x="810.0022222222221" y="441" as="targetPoint" />
            <mxPoint as="offset" />
          </mxGeometry>
        </mxCell>
        <mxCell id="3TS8Lj0KL39nGimkemYy-11" value="User" style="shape=umlLifeline;perimeter=lifelinePerimeter;whiteSpace=wrap;html=1;container=1;collapsible=0;recursiveResize=0;outlineConnect=0;rounded=1;shadow=0;comic=0;labelBackgroundColor=none;strokeWidth=1;fontFamily=Verdana;fontSize=12;align=center;" parent="1" vertex="1">
          <mxGeometry x="940" y="39" width="100" height="771" as="geometry" />
        </mxCell>
        <mxCell id="3TS8Lj0KL39nGimkemYy-4" value="Store Scraped Data" style="html=1;verticalAlign=bottom;endArrow=block;labelBackgroundColor=none;fontFamily=Verdana;fontSize=12;edgeStyle=elbowEdgeStyle;elbow=vertical;exitX=0.544;exitY=1.006;exitDx=0;exitDy=0;exitPerimeter=0;dashed=1;dashPattern=1 1;" parent="1" source="7baba1c4bc27f4b0-13" target="7baba1c4bc27f4b0-6" edge="1">
          <mxGeometry x="0.0022" relative="1" as="geometry">
            <mxPoint x="250" y="270" as="sourcePoint" />
            <Array as="points">
              <mxPoint x="310" y="270" />
            </Array>
            <mxPoint x="669.5" y="270" as="targetPoint" />
            <mxPoint as="offset" />
          </mxGeometry>
        </mxCell>
        <mxCell id="7baba1c4bc27f4b0-11" value="Request Acess" style="html=1;verticalAlign=bottom;endArrow=block;labelBackgroundColor=none;fontFamily=Verdana;fontSize=12;edgeStyle=elbowEdgeStyle;elbow=vertical;" parent="1" source="3TS8Lj0KL39nGimkemYy-11" target="7baba1c4bc27f4b0-5" edge="1">
          <mxGeometry x="-0.0465" relative="1" as="geometry">
            <mxPoint x="270" y="360" as="sourcePoint" />
            <mxPoint x="709.5" y="360" as="targetPoint" />
            <Array as="points">
              <mxPoint x="720" y="360" />
            </Array>
            <mxPoint as="offset" />
          </mxGeometry>
        </mxCell>
        <mxCell id="3TS8Lj0KL39nGimkemYy-12" value="Return Request Data" style="html=1;verticalAlign=bottom;endArrow=block;labelBackgroundColor=none;fontFamily=Verdana;fontSize=12;edgeStyle=elbowEdgeStyle;elbow=vertical;dashed=1;dashPattern=1 1;" parent="1" source="7baba1c4bc27f4b0-2" target="3TS8Lj0KL39nGimkemYy-11" edge="1">
          <mxGeometry x="0.8234" relative="1" as="geometry">
            <mxPoint x="510" y="600" as="sourcePoint" />
            <Array as="points">
              <mxPoint x="581" y="600" />
            </Array>
            <mxPoint x="650" y="600" as="targetPoint" />
            <mxPoint x="-1" as="offset" />
          </mxGeometry>
        </mxCell>
        <mxCell id="3TS8Lj0KL39nGimkemYy-2" value="Initiate on API Start" style="html=1;verticalAlign=bottom;endArrow=block;labelBackgroundColor=none;fontFamily=Verdana;fontSize=12;edgeStyle=elbowEdgeStyle;elbow=vertical;" parent="1" source="7baba1c4bc27f4b0-2" target="7baba1c4bc27f4b0-3" edge="1">
          <mxGeometry x="-0.0767" relative="1" as="geometry">
            <mxPoint x="94.75" y="120" as="sourcePoint" />
            <mxPoint x="190" y="140" as="targetPoint" />
            <Array as="points">
              <mxPoint x="185.5" y="120" />
            </Array>
            <mxPoint x="-1" as="offset" />
          </mxGeometry>
        </mxCell>
      </root>
    </mxGraphModel>
  </diagram>
</mxfile>
